<?xml version="1.0"?>
<svg width="698" height="698" xmlns="http://www.w3.org/2000/svg" xmlns:svg="http://www.w3.org/2000/svg" data-name="Layer 1">
 <defs>
  <linearGradient id="b247946c-c62f-4d08-994a-4c3d64e1e98f" x1="0.5" x2="0.5" y1="1" y2="0">
   <stop offset="0" stop-color="gray" stop-opacity="0.25"/>
   <stop offset="0.54" stop-color="gray" stop-opacity="0.12"/>
   <stop offset="1" stop-color="gray" stop-opacity="0.1"/>
  </linearGradient>
 </defs>
 <title>profile pic</title>
 <g class="layer">
  <title>Layer 1</title>
  <g id="svg_1" opacity="0.5">
   <circle cx="349" cy="349" fill="url(#b247946c-c62f-4d08-994a-4c3d64e1e98f)" id="svg_2" r="349"/>
  </g>
  <circle cx="349.68" cy="346.77" fill="#f5f5f5" id="svg_3" r="341.64"/>
  <path d="m350,689.76a340,340 0 0 0 187.79,-56.2c-12.59,-68.8 -60.5,-72.72 -60.5,-72.72l-264.2,0s-45.21,3.71 -59.33,67a340.07,340.07 0 0 0 196.24,61.92z" fill="#023712" id="svg_4"/>
  <circle cx="346.37" cy="339.57" fill="#333" id="svg_5" r="164.9"/>
  <path d="m293.15,476.92l105.66,0a0,0 0 0 1 0,0l0,84.53a52.83,52.83 0 0 1 -52.81,52.83l0,0a52.83,52.83 0 0 1 -52.83,-52.83l0,-84.53a0,0 0 0 1 0,0l-0.02,0z" id="svg_6" opacity="0.1"/>
  <path d="m296.5,473l99,0a3.35,3.35 0 0 1 3.35,3.35l0,81.18a52.83,52.83 0 0 1 -52.85,52.84l0,0a52.83,52.83 0 0 1 -52.83,-52.83l0,-81.19a3.35,3.35 0 0 1 3.33,-3.35z" fill="#fdb797" id="svg_7"/>
  <path d="m544.34,617.82a152.07,152.07 0 0 0 105.66,0.29l0,-13l-105.66,0l0,12.71z" id="svg_8" opacity="0.1" transform="translate(-251 -101)"/>
  <circle cx="346.37" cy="372.44" fill="#fdb797" id="svg_9" r="151.45"/>
  <path d="m489.49,335.68s63.83,129.56 243.88,54.32l-41.92,-65.73l-74.31,-26.67l-127.65,38.08z" id="svg_10" opacity="0.1" transform="translate(-251 -101)"/>
  <path d="m489.49,333.78s63.83,129.56 243.88,54.3l-41.92,-65.73l-74.31,-26.67l-127.65,38.1z" fill="#333" id="svg_11" transform="translate(-251 -101)"/>
  <path d="m488.93,325a87.49,87.49 0 0 1 21.69,-35.27c29.79,-29.45 78.63,-35.66 103.68,-69.24c6,9.32 1.36,23.65 -9,27.65c24,-0.16 51.81,-2.26 65.38,-22a44.89,44.89 0 0 1 -7.57,47.4c21.27,1 44,15.4 45.34,36.65c0.92,14.16 -8,27.56 -19.59,35.68s-25.71,11.85 -39.56,14.9c-40.44,8.93 -186.76,46.3 -160.37,-35.77z" fill="#333" id="svg_12" transform="translate(-251 -101)"/>
  <ellipse cx="194.86" cy="372.3" fill="#fdb797" id="svg_13" rx="14.09" ry="26.42"/>
  <ellipse cx="497.8" cy="372.3" fill="#fdb797" id="svg_14" rx="14.09" ry="26.42"/>
 </g>
</svg>