<?xml version="1.0"?>
<svg width="1009.54" height="839.64" xmlns="http://www.w3.org/2000/svg" xmlns:svg="http://www.w3.org/2000/svg" data-name="Layer 1">
 <defs>
  <linearGradient id="f9d7795c-47ab-4264-adf8-fc9a284cd87a" x1="0" x2="1" y1="0.5" y2="0.5">
   <stop offset="0" stop-color="gray" stop-opacity="0.25"/>
   <stop offset="0.54" stop-color="gray" stop-opacity="0.12"/>
   <stop offset="1" stop-color="gray" stop-opacity="0.1"/>
  </linearGradient>
 </defs>
 <title>personalization</title>
 <g class="layer">
  <title>Layer 1</title>
  <path d="m586.55,111.4c-64.72,-2.25 -126.36,-23.14 -185.22,-46s-117.16,-48.19 -180.33,-60.3c-40.63,-7.79 -87.1,-8.89 -119.83,12.89c-31.51,21 -41.69,57.15 -47.16,90.73c-4.12,25.26 -6.54,51.85 4.74,75.49c7.84,16.42 21.74,30.22 31.36,45.95c33.47,54.72 9.81,122.2 -26.45,175.63c-17,25.07 -36.75,49 -49.88,75.66s-19.2,57.25 -7.71,84.47c11.38,27 38.51,47.24 67.9,61.49c59.69,28.95 130,37.23 198.61,41.92c151.83,10.39 304.46,5.89 456.69,1.39c56.34,-1.67 112.92,-3.36 168.34,-12.07c30.78,-4.84 62.55,-12.51 84.9,-31.05c28.36,-23.53 35.39,-63.37 16.38,-92.88c-31.88,-49.49 -120,-61.78 -142.31,-114.89c-12.26,-29.24 0.33,-61.8 18.16,-88.92c38.24,-58.16 102.33,-109.19 105.7,-175.67c2.32,-45.66 -28.49,-91.39 -76.13,-113c-49.93,-22.64 -119.18,-19.8 -156,17.69c-37.95,38.6 -104.61,53.45 -161.76,51.47z" fill="#93ad9b" id="svg_1" transform="matrix(1 0 0 1 0 0)"/>
  <ellipse cx="483.49" cy="780.99" fill="#93ad9b" id="svg_2" rx="303.97" ry="41.12"/>
  <path d="m333.01,658.57s21,-3.36 33.6,11.48c0,0 -9.24,7.28 -29.12,-2.8l-4.48,-8.68z" fill="#12372a" id="svg_3" opacity="0.8" transform="matrix(1 0 0 1 0 0)"/>
  <path d="m330.77,658.24s-13.4,16.58 -6.83,34.85c0,0 10.92,-4.37 12.11,-26.63l-5.28,-8.22z" fill="#12372a" id="svg_4" opacity="0.8" transform="matrix(1 0 0 1 0 0)"/>
  <path d="m318.77,631.13s8.4,-15.4 42,6.16c0,0 -4.48,10.36 -19.32,9.52s-18.81,-7.56 -22.68,-15.68z" fill="#12372a" id="svg_5" opacity="0.8" transform="matrix(1 0 0 1 0 0)"/>
  <path d="m316.56,630.02s-17.43,-2 -19.12,37.9c0,0 11.05,2.3 18.9,-10.33s4.6,-19.69 0.22,-27.57z" fill="#12372a" id="svg_6" opacity="0.8" transform="matrix(1 0 0 1 0 0)"/>
  <path d="m306.4,598.2s9.8,-27.17 45.37,-7.85c0,0 -8.12,24.93 -41.73,17.09l-3.64,-9.24z" fill="#12372a" id="svg_7" opacity="0.8" transform="matrix(1 0 0 1 0 0)"/>
  <path d="m295.48,557.59s18.48,-27.44 51.25,-2c0,0 -11.48,25.76 -48.45,11.76l-2.8,-9.76z" fill="#12372a" id="svg_8" opacity="0.8" transform="matrix(1 0 0 1 0 0)"/>
  <path d="m291.56,518.95s21.56,-25.2 54,0c0,0 -20.45,22.12 -54,6.44l0,-6.44z" fill="#12372a" id="svg_9" opacity="0.8" transform="matrix(1 0 0 1 0 0)"/>
  <path d="m289.2,482.43s21.84,-26.33 52.93,-1.4c0,0 -24.65,23.24 -52.93,7.56l0,-6.16z" fill="#12372a" id="svg_10" opacity="0.8" transform="matrix(1 0 0 1 0 0)"/>
  <path d="m291.16,449.1s23,-33.88 52.09,-10.92c0,0 -24.65,29.13 -52.09,17.36l0,-6.44z" fill="#12372a" id="svg_11" opacity="0.8" transform="matrix(1 0 0 1 0 0)"/>
  <path d="m296.48,410.18s24.36,-33.6 52.65,-7.84c0,0 -28.85,29.12 -52.65,14l0,-6.16z" fill="#12372a" id="svg_12" opacity="0.8" transform="matrix(1 0 0 1 0 0)"/>
  <path d="m304.61,375.39s28.83,-31.57 54,-19c0,0 -30.06,33.53 -55.26,27.37l1.26,-8.37z" fill="#12372a" id="svg_13" opacity="0.8" transform="matrix(1 0 0 1 0 0)"/>
  <path d="m314.68,342.42s33.33,-38.65 52.65,-25.77c0,0 -24.52,30 -55,33.05l2.35,-7.28z" fill="#12372a" id="svg_14" opacity="0.8" transform="matrix(1 0 0 1 0 0)"/>
  <path d="m329.23,304.16s29.14,-31.58 50.42,-23.74c0,0 -24.92,32.77 -54.33,33.61l3.91,-9.87z" fill="#12372a" id="svg_15" opacity="0.8" transform="matrix(1 0 0 1 0 0)"/>
  <path d="m342.41,268.38s32.2,-30.24 46.2,-24.92c0,0 -23.24,33.6 -47.6,31.64l1.4,-6.72z" fill="#12372a" id="svg_16" opacity="0.8" transform="matrix(1 0 0 1 0 0)"/>
  <path d="m449.52,264.52s27.72,-36.12 42.84,-33.32c0,0 -16.8,32.2 -42.84,37l0,-3.68z" fill="#38d39f" id="svg_17" transform="translate(-95.23 -30.18)"/>
  <path d="m463.49,220s24.51,-27.7 37.74,-27.63c0,0 -19.34,37 -38.74,36.66l1,-9.03z" fill="#38d39f" id="svg_18" transform="translate(-95.23 -30.18)"/>
  <path d="m377.55,161.13l23.66,-57.68s1.19,52.14 -26.68,68.38l3.02,-10.7z" fill="#12372a" id="svg_19" opacity="0.8" transform="matrix(1 0 0 1 0 0)"/>
  <path d="m387.15,97.52s3.92,-48.16 1.4,-52.08c0,0 16.93,40 -1.56,73.36l0.16,-21.28z" fill="#12372a" id="svg_20" opacity="0.8" transform="matrix(1 0 0 1 0 0)"/>
  <path d="m305.49,597.55s-24.55,-15.21 -40.43,22c0,0 21.84,14.5 43.31,-12.51l-2.88,-9.49z" fill="#12372a" id="svg_21" opacity="0.8" transform="matrix(1 0 0 1 0 0)"/>
  <path d="m294.7,556.04s-30.1,-13.73 -44.71,25.12c0,0 23.26,16 47.45,-15.3l-2.74,-9.82z" fill="#12372a" id="svg_22" opacity="0.8" transform="matrix(1 0 0 1 0 0)"/>
  <path d="m290.16,521.26s-21.56,-25.2 -54,0c0,0 20.44,22.12 54,6.44l0,-6.44z" fill="#12372a" id="svg_23" opacity="0.8" transform="matrix(1 0 0 1 0 0)"/>
  <path d="m288.47,482.43s-21.85,-26.33 -52.93,-1.4c0,0 24.64,23.24 52.93,7.56l0,-6.16z" fill="#12372a" id="svg_24" opacity="0.8" transform="matrix(1 0 0 1 0 0)"/>
  <path d="m291.16,450.06s-15.32,-37.95 -48.62,-21.63c0,0 18,33.66 47.27,27.93l1.35,-6.3z" fill="#12372a" id="svg_25" opacity="0.8" transform="matrix(1 0 0 1 0 0)"/>
  <path d="m298.41,409.99s-15.22,-38.61 -49,-20.71c0,0 20.68,35.39 47.5,26.68l1.5,-5.97z" fill="#12372a" id="svg_26" opacity="0.8" transform="matrix(1 0 0 1 0 0)"/>
  <path d="m307.85,375.59s-6,-42.34 -33.95,-46.13c0,0 5.93,44.64 30.22,53.75l3.73,-7.62z" fill="#12372a" id="svg_27" opacity="0.8" transform="matrix(1 0 0 1 0 0)"/>
  <path d="m315.4,342.49s-2.35,-51 -25.5,-52.77c0,0 0.78,38.7 22.89,60l2.61,-7.23z" fill="#12372a" id="svg_28" opacity="0.8" transform="matrix(1 0 0 1 0 0)"/>
  <path d="m331.64,302.7s-6.91,-42.4 -29,-47.59c0,0 2.74,41.07 26.81,58l2.19,-10.41z" fill="#12372a" id="svg_29" opacity="0.8" transform="matrix(1 0 0 1 0 0)"/>
  <path d="m345.03,268.69s-0.24,-44.18 -13.74,-50.67c0,0 -8.37,40 9.83,56.31l3.91,-5.64z" fill="#12372a" id="svg_30" opacity="0.8" transform="matrix(1 0 0 1 0 0)"/>
  <path d="m356.32,234.82s-1.9,-45.5 -15.87,-51.91c0,0 -4.79,36 13.77,54.88l2.1,-2.97z" fill="#12372a" id="svg_31" opacity="0.8" transform="matrix(1 0 0 1 0 0)"/>
  <path d="m371.22,194.42s-0.09,-37 -10.07,-45.68c0,0 -9.92,40.54 4.86,53.12l5.21,-7.44z" fill="#12372a" id="svg_32" opacity="0.8" transform="matrix(1 0 0 1 0 0)"/>
  <path d="m376.37,159.31l-9.7,-61.59s-13.2,50.47 10.16,72.7l-0.46,-11.11z" fill="#12372a" id="svg_33" opacity="0.8" transform="matrix(1 0 0 1 0 0)"/>
  <path d="m378.27,98.1s-24.93,-41.39 -24.41,-46c0,0 2.64,43.4 34,65l-9.59,-19z" fill="#12372a" id="svg_34" opacity="0.8" transform="matrix(1 0 0 1 0 0)"/>
  <path d="m381.19,85.88s-23.52,-58.81 -34.16,-63.57c0,0 33.6,17.08 36.12,61.89l-1.96,1.68z" fill="#12372a" id="svg_35" opacity="0.8" transform="matrix(1 0 0 1 0 0)"/>
  <path d="m462.36,229.35l-1.61,-0.49c19.85,-64.73 24.81,-106 13.95,-116.34l1.16,-1.22c11.5,10.91 6.84,51.7 -13.5,118.05z" fill="#444053" id="svg_36" transform="translate(-95.23 -30.18)"/>
  <path d="m407.7,380.87l-2.37,-0.84c2.1,-5.93 4.37,-11.95 6.75,-17.89c20.72,-51.64 38.36,-99.67 49.67,-136.55l2.07,-1c-11.33,36.95 -28.65,86.83 -49.4,138.53c-2.37,5.88 -4.63,11.88 -6.72,17.75z" fill="#444053" id="svg_37" transform="translate(-95.23 -30.18)"/>
  <path d="m457.79,737.2c-0.32,-0.36 -32.5,-36.58 -54.92,-98.44a364.43,364.43 0 0 1 -21.7,-112.76c-1.54,-48.13 8.56,-101.87 25.86,-150.68l1.88,2.2c-38.83,109.56 -23.4,203.45 -2.94,260c22.2,61.29 54,97.13 54.32,97.48l-2.5,2.2z" fill="#444053" id="svg_38" transform="translate(-95.23 -30.18)"/>
  <rect fill="#635e5e" height="73.02" id="svg_39" rx="2.29" ry="2.29" transform="matrix(1 0 0 1 0 0)" width="8.86" x="642.8" y="289.82"/>
  <rect fill="#635e5e" height="24.04" id="svg_40" rx="2.29" ry="2.29" transform="matrix(1 0 0 1 0 0)" width="4.97" x="348.37" y="232.61"/>
  <rect fill="#635e5e" height="41.84" id="svg_41" rx="2.29" ry="2.29" transform="matrix(1 0 0 1 0 0)" width="5.6" x="348.19" y="276.63"/>
  <rect fill="#635e5e" height="42.2" id="svg_42" rx="2.29" ry="2.29" transform="matrix(1 0 0 1 0 0)" width="5.33" x="348.28" y="333.11"/>
  <rect fill="#968b8b" height="602.39" id="svg_43" rx="38.99" ry="38.99" transform="matrix(1 0 0 1 0 0)" width="296.4" x="351.18" y="153.17"/>
  <path d="m605.77,168.82l-34,0l0,4.09a19.38,19.38 0 0 1 -19.39,19.38l-108.13,0a19.38,19.38 0 0 1 -19.39,-19.38l0,-4.09l-31.83,0a23.54,23.54 0 0 0 -23.54,23.54l0,523.97a23.54,23.54 0 0 0 23.54,23.54l212.74,0a23.54,23.54 0 0 0 23.54,-23.54l0,-523.93a23.54,23.54 0 0 0 -23.54,-23.58z" fill="#1a503d" id="svg_44"/>
  <rect fill="#e6e8ec" height="8.4" id="svg_45" rx="3.87" ry="3.87" width="41.39" x="470.79" y="171.16"/>
  <circle cx="523.21" cy="175.36" fill="#e6e8ec" id="svg_46" r="4.77"/>
  <path d="m751.2,127.75s-84.2,-5.08 -74.28,53.92c0,0 -2,10.43 7.48,15.16c0,0 0.15,-4.37 8.64,-2.88a39.5,39.5 0 0 0 9.15,0.44a19.06,19.06 0 0 0 11.18,-4.57l0,0s23.67,-9.78 32.87,-48.46c0,0 6.81,-8.44 6.54,-10.61l-14.21,6.07s4.86,10.25 1,18.77c0,0 -0.46,-18.4 -3.19,-18c-0.55,0.08 -7.38,3.55 -7.38,3.55s8.35,17.85 2.05,30.83c0,0 2.39,-22 -4.66,-29.54l-10,5.84s9.76,18.44 3.14,33.49c0,0 1.7,-23.08 -5.25,-32.07l-9.06,7.07s9.17,18.17 3.58,30.65c0,0 -0.73,-26.86 -5.54,-28.89c0,0 -7.93,7 -9.14,9.86c0,0 6.28,13.2 2.38,20.16c0,0 -2.39,-17.9 -4.35,-18c0,0 -7.9,11.86 -8.72,20c0,0 0.34,-12.09 6.81,-21.12c0,0 -7.64,1.31 -12.1,6.26c0,0 1.23,-8.38 14.05,-9.12c0,0 6.53,-9 8.27,-9.54c0,0 -12.74,-1.07 -20.47,2.36c0,0 6.8,-7.91 22.81,-4.31l8.95,-7.31s-16.78,-2.29 -23.9,0.24c0,0 8.19,-7 26.31,-1.9l9.74,-5.82s-14.31,-3.08 -22.83,-2c0,0 9,-4.85 25.69,0.41l7,-3.13s-10.48,-2.06 -13.55,-2.39s-3.23,-1.17 -3.23,-1.17a36.35,36.35 0 0 1 19.69,2.19s14.78,-5.51 14.53,-6.44z" fill="#12372a" id="svg_47" opacity="0.8" transform="matrix(1 0 0 1 0 0)"/>
  <path d="m664.83,101.51s-38,-2.29 -33.56,24.37c0,0 -0.89,4.71 3.38,6.85c0,0 0.07,-2 3.91,-1.31a17.51,17.51 0 0 0 4.13,0.2a8.56,8.56 0 0 0 5.05,-2.08l0,0s10.7,-4.42 14.86,-21.9c0,0 3.07,-3.81 2.95,-4.79l-6.42,2.74s2.19,4.63 0.47,8.48c0,0 -0.21,-8.31 -1.44,-8.12c-0.25,0 -3.34,1.61 -3.34,1.61s3.78,8.07 0.93,13.93c0,0 1.08,-9.94 -2.11,-13.35l-4.52,2.68s4.41,8.33 1.42,15.13c0,0 0.77,-10.43 -2.37,-14.49l-4.09,3.2s4.14,8.21 1.62,13.85c0,0 -0.34,-12.14 -2.51,-13.06c0,0 -3.58,3.16 -4.13,4.46c0,0 2.84,6 1.08,9.11c0,0 -1.08,-8.09 -2,-8.13c0,0 -3.57,5.36 -3.94,9a19.52,19.52 0 0 1 3.08,-9.54a10.76,10.76 0 0 0 -5.47,2.83s0.56,-3.79 6.35,-4.12c0,0 3,-4.07 3.74,-4.32c0,0 -5.76,-0.48 -9.25,1.07c0,0 3.07,-3.57 10.3,-1.95l4,-3.3s-7.59,-1 -10.8,0.11c0,0 3.7,-3.16 11.89,-0.86l4.4,-2.63s-6.47,-1.39 -10.32,-0.89c0,0 4.07,-2.19 11.61,0.18l3.15,-1.41s-4.74,-0.93 -6.13,-1.08s-1.46,-0.53 -1.46,-0.53a16.39,16.39 0 0 1 8.9,1s6.76,-2.52 6.64,-2.94z" fill="#12372a" id="svg_48" opacity="0.8" transform="matrix(1 0 0 1 0 0)"/>
  <rect height="439.24" id="svg_49" opacity="0" transform="matrix(1 0 0 1 0 0)" width="206.95" x="395.91" y="226.18"/>
  <path d="m691.75,818.22s-4.88,-11.36 -7.06,-16.6c-1.23,-3 -3.31,-3.5 -4.9,-3.43l0.09,-1l0.39,-4.73l0.08,-1c3.77,-0.79 7,-1.41 7,-1.41l-2.35,-121.32s-1,-1.28 -3.42,-9c-1.2,-3.85 -7,-8.58 -12.42,-12.35c-0.85,-0.59 -1.68,-1.15 -2.5,-1.69a62.39,62.39 0 0 1 6.21,-4.58c3.08,-1.79 4.1,-12 4.1,-12l-0.51,1c0.51,-1 0,-27.07 0,-27.07l-1.8,-27.06s-1.28,-32.17 -11.28,-40.6s-22.63,-11.38 -22.63,-11.38l-7,-1.8l0,0l-12.9,-3.31c-0.36,-0.59 -0.71,-1.21 -1,-1.86c-0.13,-0.25 -0.25,-0.51 -0.37,-0.77a30.2,30.2 0 0 0 12.75,-24.65a29.73,29.73 0 0 0 -0.39,-4.84c0,-0.3 -0.11,-0.61 -0.17,-0.91a25.2,25.2 0 0 0 3,-2.41a13.63,13.63 0 0 0 3.66,-4.49l0,0a7.57,7.57 0 0 0 0.34,-1.05c0,-0.1 0,-0.2 0.06,-0.31s0.09,-0.53 0.12,-0.8c0,-0.1 0,-0.2 0,-0.3c0,-0.29 0,-0.59 0,-0.88c0,-0.07 0,-0.14 0,-0.22c0,-0.33 -0.05,-0.66 -0.1,-1a0.13,0.13 0 0 0 0,-0.06l0,0a17.21,17.21 0 0 0 -0.9,-3.4c-1,-2.58 -2.3,-5 -2.77,-7.75c-0.58,-3.25 0.09,-6.8 -1.46,-9.72a8.67,8.67 0 0 0 -6.09,-4.19a14.35,14.35 0 0 0 -7.52,0.86a10.7,10.7 0 0 1 -3.71,1a7.75,7.75 0 0 1 -2.71,-0.66a40.19,40.19 0 0 1 -8.4,-4.51a40.22,40.22 0 0 0 -6,-3.92a8.12,8.12 0 0 0 -6.92,-0.28c-3.7,1.88 -4.4,7.12 -7.84,9.43c-2.37,1.6 -5.46,1.44 -8.32,1.54s-6.1,0.81 -7.51,3.29c-1,1.72 -0.76,3.77 -0.57,5.78l0.06,0.68c0,0.24 0,0.49 0.06,0.73a18.37,18.37 0 0 1 -1.13,7.56c-1.38,3.66 -4,7.27 -3.91,11l0,0a7.66,7.66 0 0 0 0.23,1.76a8.45,8.45 0 0 0 0.28,0.85l0,0a37.24,37.24 0 0 0 1.85,3.61l0.09,0.16c0.07,0.14 0.14,0.28 0.2,0.42s0.18,0.38 0.25,0.57s0.08,0.19 0.11,0.28s0.13,0.37 0.18,0.56a5.36,5.36 0 0 1 0.21,1.74a16.2,16.2 0 0 0 -0.19,2.29a1.68,1.68 0 0 0 1.34,1.63a2.23,2.23 0 0 0 1.16,-0.36a18.57,18.57 0 0 0 2.55,-1.75c0,0.32 0,0.64 0.06,1a30.26,30.26 0 0 0 9.09,18.83c0,0.31 0,0.63 -0.07,1s-0.05,0.72 -0.07,1.09l0,0l-11.2,3.52s0.06,0.2 0.18,0.54l-1.18,0.47l0,0c-5.81,2.35 -12.28,5.27 -15.9,7.92c-1.6,1.16 -3.06,2.11 -4.37,2.9a25,25 0 0 0 -10.36,12.55l-0.15,0.38c-1,2.29 -5.9,17.87 -5.9,17.87s-3.59,8.68 -4.11,14.3c0,0 -5.9,18.63 -4.36,30.89c0,0 -4.62,17.62 -2.82,20.42c0,0 -1.84,7.58 6.24,15.21c-0.59,0.36 -1.23,0.75 -1.9,1.18c-6.26,3.94 -15.29,10.33 -16.83,15.26c-2.39,7.67 -3.42,9 -3.42,9l-2.42,121.13s3.23,0.62 7,1.4l0.08,1l0.39,4.72l0.09,1c-1.59,-0.07 -3.67,0.48 -4.9,3.44c-2.19,5.23 -7,16.58 -7,16.58s-10.77,10 -4.24,19.28a6.68,6.68 0 0 0 1,1.16c4.69,4.26 14.69,1.53 21.8,-1.25a21.26,21.26 0 0 0 9,-7.26a3.42,3.42 0 0 1 2.4,-1.33a9.8,9.8 0 0 0 4.47,-1.95a6,6 0 0 0 2.46,-5a0.76,0.76 0 0 1 0,-0.15l-0.63,-14.23s-0.77,-9.94 -3.22,-9.3l-0.63,0.15l-0.17,-1l0,0l-0.33,-1.93l-0.17,-1l1.36,0s0.34,-11.24 4.45,-20.08s6.81,-80.25 6.81,-80.25s50.87,0.83 52.57,-3.94l0,0c1,0 2.09,0 3.13,-0.07c1.71,4.77 49.72,5 49.72,5s2.73,71.49 6.83,80.34a40.82,40.82 0 0 1 2.15,5.86l0,0a65.41,65.41 0 0 1 2.31,14.21l1.36,0l-0.18,1l-0.33,1.92l-0.17,1l-0.65,-0.15c-2.43,-0.63 -3.2,9.31 -3.2,9.31l-0.65,14.32a5.81,5.81 0 0 0 2.38,5a10,10 0 0 0 4.55,2a3.34,3.34 0 0 1 2.4,1.32a21.32,21.32 0 0 0 9,7.26c7.68,3 18.72,5.93 22.82,0.1c6.58,-9.3 -4.19,-19.26 -4.19,-19.26zm-129.3,-178.34l0,0l0.12,0l-0.12,0zm80.35,-40.88s1.29,4.85 3.59,7.4s1.16,18.39 1.16,18.39a14.2,14.2 0 0 0 -2.68,0.43c-1.77,-10.53 -3.4,-22.22 -2.07,-26.22z" fill="url(#f9d7795c-47ab-4264-adf8-fc9a284cd87a)" id="svg_50" transform="translate(-95.23 -30.18)"/>
  <polygon fill="#8e6f7f" id="svg_51" points="436.96 768.43 416.85 770.43 416.29 763.7 415.9 759.07 415.35 752.3 434.35 753.3 435.86 761.99 436.18 763.88 436.19 763.88 436.96 768.43"/>
  <polygon fill="#8e6f7f" id="svg_52" points="583.41 753.31 582.86 760.07 582.48 764.7 581.91 771.43 561.79 769.43 562.59 764.88 562.9 763 564.41 754.31 583.41 753.31"/>
  <path d="m657.33,686.1l-59.8,2.81q-4.08,0.2 -8.16,0l-57.13,-2.8l0,-45.26l125.09,0l0,45.25z" fill="#5f5570" id="svg_53" transform="translate(-95.23 -30.18)"/>
  <path d="m657.33,686.1l-59.8,2.81q-4.08,0.2 -8.16,0l-57.13,-2.8l0,-45.26l125.09,0l0,45.25z" id="svg_54" opacity="0.1" transform="translate(-95.23 -30.18)"/>
  <path d="m580.75,518.91s-19.92,6.69 -27.42,12.19c-1.56,1.14 -3,2.08 -4.26,2.85a24.4,24.4 0 0 0 -10.07,12.28c-0.05,0.14 -0.1,0.26 -0.15,0.37c-1,2.25 -5.75,17.5 -5.75,17.5s-3.5,8.5 -4,14s28.5,20.25 28.5,20.25s-14,30.5 -7.75,38.25s97.5,11.5 95.5,0s-5.5,-30.5 -3.75,-35.75l31,-22.5s-1.25,-31.5 -11,-39.75s-22,-11.25 -22,-11.25l-19.41,-5s-6.84,17 -14.34,19.25s-23.93,-8.14 -25.1,-22.69z" fill="#eaeaf2" id="svg_55" transform="translate(-95.23 -30.18)"/>
  <path d="m608.73,547.54s-8.46,7.06 -12.9,0c0,0 -4,11.94 0,15.94l-0.15,0.81l-0.71,3.56l-9.26,77l7.62,13.15l13.87,-17.4l-1.12,-72l-0.5,-4.13l-0.12,-1l2.37,0s6.29,-10.87 0.9,-15.93z" id="svg_56" opacity="0.1" transform="translate(-95.23 -30.18)"/>
  <path d="m610.73,547.54s-8.46,7.06 -12.9,0c0,0 -4,11.94 0,15.94l-0.15,0.81l-0.71,3.56l-9.26,77l7.62,13.15l13.87,-17.4l-1.12,-72l-0.5,-4.13l-0.12,-1l2.37,0s6.29,-10.87 0.9,-15.93z" id="svg_57" opacity="0.1" transform="translate(-95.23 -30.18)"/>
  <polygon fill="#bc8487" id="svg_58" points="512.97 609.43 499.1 626.8 491.46 613.72 500.73 536.68 501.44 533.12 501.6 532.3 502.85 529.06 511.23 532.3 511.35 533.3 511.85 537.43 512.97 609.43"/>
  <path d="m531.09,792.16a67.93,67.93 0 0 1 -12.85,-1.31c-2.09,-0.52 -4.71,-1.1 -7.1,-1.61l-0.56,-6.77l19,1l1.51,8.69z" id="svg_59" opacity="0.1" transform="translate(-95.23 -30.18)"/>
  <path d="m594.48,689c-1.66,4.67 -51.24,3.85 -51.24,3.85s-2.66,70 -6.66,78.67s-4.34,19.66 -4.34,19.66s-8.66,0 -14,-1.33s-14,-3 -14,-3l2.34,-118.75s1,-1.25 3.33,-8.76c1.5,-4.83 10.3,-11.09 16.39,-15c3.4,-2.14 5.94,-3.54 5.94,-3.54l29.58,1.2l18.26,0.74s16.07,41.59 14.4,46.26z" fill="#5f5570" id="svg_60" transform="translate(-95.23 -30.18)"/>
  <path d="m532.2,798.6l-20.12,2l-0.57,-6.73a6,6 0 0 1 2.19,0.48c3.67,2.64 14.16,0.54 17.71,-0.3l0,0l0.79,4.55z" id="svg_61" opacity="0.1" transform="translate(-95.23 -30.18)"/>
  <path d="m536,818.05a5.87,5.87 0 0 1 -2.41,4.89a9.55,9.55 0 0 1 -4.35,1.91a3.25,3.25 0 0 0 -2.33,1.3a20.87,20.87 0 0 1 -8.8,7.11c-6.93,2.72 -16.68,5.39 -21.25,1.22a6.32,6.32 0 0 1 -1,-1.13c-6.37,-9.12 4.13,-18.88 4.13,-18.88s4.74,-11.12 6.87,-16.24a5,5 0 0 1 6.87,-2.88c4,2.88 16.13,0.12 18.5,-0.49s3.13,9.11 3.13,9.11l0.64,13.93a0.76,0.76 0 0 0 0,0.15z" fill="#bc8487" id="svg_62" transform="translate(-95.23 -30.18)"/>
  <path d="m678.65,783.48l-0.56,6.76c-2.39,0.51 -5,1.09 -7.11,1.61a68.11,68.11 0 0 1 -12.84,1.32l1.51,-8.69l19,-1z" id="svg_63" opacity="0.1" transform="translate(-95.23 -30.18)"/>
  <path d="m685,787.85s-8.66,1.67 -14,3s-14,1.33 -14,1.33s-0.33,-11 -4.33,-19.66s-6.67,-78.67 -6.67,-78.67s-46.78,-0.27 -48.45,-4.94s20.39,-45 20.39,-45l13.45,-0.7l25.61,-1.36s5,2.72 10.24,6.39s10.93,8.33 12.1,12.1c2.33,7.51 3.33,8.76 3.33,8.76l2.33,118.75z" fill="#5f5570" id="svg_64" transform="translate(-95.23 -30.18)"/>
  <path d="m677.71,794.87l-0.56,6.73l-20.13,-2l0.8,-4.55c3.55,0.85 14,2.94 17.7,0.3a6,6 0 0 1 2.19,-0.48z" id="svg_65" opacity="0.1" transform="translate(-95.23 -30.18)"/>
  <path d="m675.52,796.35a5,5 0 0 1 6.88,2.88c2.12,5.12 6.87,16.25 6.87,16.25s10.5,9.75 4.13,18.87c-4,5.72 -14.76,2.85 -22.24,-0.09a20.74,20.74 0 0 1 -8.8,-7.11a3.26,3.26 0 0 0 -2.34,-1.3a9.81,9.81 0 0 1 -4.44,-2a5.72,5.72 0 0 1 -2.31,-4.88l0.63,-14s0.75,-9.73 3.12,-9.12s14.5,3.38 18.5,0.5z" fill="#bc8487" id="svg_66" transform="translate(-95.23 -30.18)"/>
  <path d="m623.83,527.35l-20.19,21.4l-0.56,0.6l-0.73,-0.43c-4.22,-2.5 -25.33,-15.24 -23.52,-19.07c1,-2.18 1.59,-6.72 1.9,-10.63c0,-0.47 0.06,-0.93 0.1,-1.38c0.2,-3.09 0.25,-5.49 0.25,-5.49s38,-6.5 36.5,0c-0.61,2.63 0.3,5.59 1.59,8.18c0.38,0.75 0.8,1.46 1.21,2.13a33,33 0 0 0 3.45,4.69z" fill="#ffc4d0" id="svg_67" transform="translate(-95.23 -30.18)"/>
  <path d="m619.17,520.53a29.65,29.65 0 0 1 -38.34,-2.69c0.2,-3.09 0.25,-5.49 0.25,-5.49s38,-6.5 36.5,0c-0.58,2.65 0.3,5.59 1.59,8.18z" id="svg_68" opacity="0.1" transform="translate(-95.23 -30.18)"/>
  <path d="m631.24,495.64a29.67,29.67 0 0 1 -59.24,2.82q-0.12,-1.4 -0.12,-2.82a29.67,29.67 0 1 1 59.33,0l0.03,0z" fill="#ffc4d0" id="svg_69" transform="translate(-95.23 -30.18)"/>
  <path d="m630.87,490.9a7.1,7.1 0 0 1 -5.58,1.51c-4.58,-1 -6.15,-8 -10.83,-8.48s-7.79,6 -12.53,5.87c-2,-0.05 -3.8,-1.36 -5.64,-2.27c-3.22,-1.59 -8.52,-2.56 -12,-1.36c-5.23,1.79 -7,6.63 -10.34,10.48a15.25,15.25 0 0 1 -1.87,1.81q-0.12,-1.4 -0.12,-2.82a29.67,29.67 0 0 1 59,-4.74l-0.09,0z" id="svg_70" opacity="0.1" transform="translate(-95.23 -30.18)"/>
  <path d="m596.29,486.54c1.84,0.9 3.6,2.22 5.64,2.27c4.73,0.12 7.82,-6.39 12.52,-5.88s6.25,7.45 10.85,8.48c3.09,0.7 6,-1.61 8.31,-3.76a13.23,13.23 0 0 0 3.57,-4.39c1,-2.48 0.48,-5.34 -0.45,-7.86s-2.24,-4.94 -2.7,-7.59c-0.56,-3.18 0.09,-6.66 -1.42,-9.52a8.43,8.43 0 0 0 -5.94,-4.1a14,14 0 0 0 -7.33,0.83a10.37,10.37 0 0 1 -3.61,1a7.64,7.64 0 0 1 -2.65,-0.65a39.13,39.13 0 0 1 -8.18,-4.41a38.35,38.35 0 0 0 -5.83,-3.84a7.86,7.86 0 0 0 -6.74,-0.27c-3.6,1.84 -4.29,7 -7.64,9.23c-2.31,1.56 -5.32,1.4 -8.1,1.51s-6,0.78 -7.32,3.21c-1.18,2.09 -0.59,4.66 -0.44,7.05a18.1,18.1 0 0 1 -1.11,7.4c-1.55,4.14 -4.7,8.22 -3.58,12.5c0.73,2.81 3.25,5.14 3.1,8a15.25,15.25 0 0 0 -0.19,2.23a1.65,1.65 0 0 0 1.31,1.6a2,2 0 0 0 1.12,-0.36a16.72,16.72 0 0 0 4.41,-3.57c3.38,-3.86 5.13,-8.69 10.36,-10.48c3.53,-1.17 8.82,-0.23 12.04,1.37z" fill="#8e6f7f" id="svg_71" transform="translate(-95.23 -30.18)"/>
  <path d="m630.7,661.1l-5.4,1.47l-12.47,3.43a30.13,30.13 0 0 1 -9.59,4.77c-7.63,1.93 -12.56,-2.27 -16.66,-8.77c-1.65,-2.6 -0.82,-4.68 1.34,-6.31c5.2,-3.93 18.06,-5.21 22,-4.69a16.46,16.46 0 0 0 7.59,-1.18a29.4,29.4 0 0 0 4.91,-2.32l8.28,13.6z" fill="#ffc4d0" id="svg_72" transform="translate(-95.23 -30.18)"/>
  <path d="m630.7,661.1l-5.4,1.47c-1.55,-4.67 -4.1,-10.53 -7.75,-12.78a29.4,29.4 0 0 0 4.91,-2.32l8.24,13.63z" id="svg_73" opacity="0.1" transform="translate(-95.23 -30.18)"/>
  <path d="m667.22,648.24c-2.24,1.81 -4.14,3.46 -4.14,3.46s-26,8.15 -31,18.4c0,0 -4,-20 -12.5,-20.25c0,0 9.15,-3.59 11.79,-6.66l25.63,-1.34s5,2.72 10.22,6.39z" id="svg_74" opacity="0.1" transform="translate(-95.23 -30.18)"/>
  <path d="m666.83,569.85l5.75,8.5l1.75,26.5s0.5,25.5 0,26.5l0.5,-1s-1,10 -4,11.75s-9.75,7.6 -9.75,7.6s-26,8.15 -31,18.4c0,0 -4,-20 -12.5,-20.25c0,0 12.75,-5 12.5,-8.25c0,0 9.75,-8.75 10.5,-11s5.62,-2.5 5.62,-2.5s1.13,-15.5 -1.12,-18s-3.5,-7.25 -3.5,-7.25l25.25,-31z" fill="#eaeaf2" id="svg_75" transform="translate(-95.23 -30.18)"/>
  <path d="m603.24,670.74c-7.63,1.93 -12.56,-2.27 -16.66,-8.77c-1.65,-2.6 -0.82,-4.68 1.34,-6.31l0.78,0.31s13.75,5.96 14.54,14.77z" id="svg_76" opacity="0.1" transform="translate(-95.23 -30.18)"/>
  <path d="m600.08,678.73c-9,12.5 -25.75,-4.88 -27,-8.38c-0.45,-1.27 -2.16,-2.4 -4.13,-3.31a44.58,44.58 0 0 0 -7.75,-2.57l14.88,-12.12l2.85,1.14l8.77,3.51s21.38,9.23 12.38,21.73z" fill="#ffc4d0" id="svg_77" transform="translate(-95.23 -30.18)"/>
  <path d="m578.93,653.49c-8.2,3.9 -9.95,9.51 -10,13.55a44.58,44.58 0 0 0 -7.75,-2.57l14.88,-12.12l2.87,1.14z" id="svg_78" opacity="0.1" transform="translate(-95.23 -30.18)"/>
  <path d="m565.83,675.1s-24,-19 -35.5,-27.25a28.12,28.12 0 0 1 -4,-3.46c3.4,-2.14 5.94,-3.54 5.94,-3.54l29.58,1.2c0.79,1.37 1.26,2.3 1.26,2.3l16,10.5c-19.28,6.25 -13.28,20.25 -13.28,20.25z" id="svg_79" opacity="0.1" transform="translate(-95.23 -30.18)"/>
  <path d="m533.83,575.35l-4.75,2.75s-5.75,18.25 -4.25,30.25c0,0 -4.5,17.25 -2.75,20c0,0 -2.25,9.25 9.25,17.5s35.5,27.25 35.5,27.25s-6,-14 13.25,-20.25l-16,-10.5s-5.37,-10.66 -10.5,-13c0,0 -4,-4 -1.5,-6.75s4.5,-5.75 4.5,-8.5s1,-15.75 1,-15.75l3,-14l-26.75,-9z" fill="#eaeaf2" id="svg_80" transform="translate(-95.23 -30.18)"/>
  <path d="m606.58,563.47l-9.75,0a1.29,1.29 0 0 1 -0.16,-0.18l0.16,-0.82l1.25,-3.24l8.38,3.24l0.12,1z" id="svg_81" opacity="0.1" transform="translate(-95.23 -30.18)"/>
  <path d="m609.73,546.54s-8.46,7.06 -12.9,0c0,0 -4,11.94 0,15.94l12,0s6.29,-10.88 0.9,-15.94z" fill="#bc8487" id="svg_82" transform="translate(-95.23 -30.18)"/>
  <path d="m621.17,523.35l12.6,3.25s-11.94,31 -14.57,31l-15.12,-7.25l17.09,-27z" id="svg_83" opacity="0.1" transform="translate(-95.23 -30.18)"/>
  <path d="m623.83,527.35l-20.19,21.4l-0.56,0.6l-0.73,-0.43l17.65,-26.92l0.43,0.71a33,33 0 0 0 3.4,4.64z" id="svg_84" opacity="0.1" transform="translate(-95.23 -30.18)"/>
  <path d="m620.17,522.35l12.6,3.25s-11.94,31 -14.57,31l-15.12,-7.25l17.09,-27z" fill="#eaeaf2" id="svg_85" transform="translate(-95.23 -30.18)"/>
  <path d="m579.75,519.91l-10.92,3.44s10.75,32.5 13.75,34.25l19.5,-7.25l-22.33,-30.44z" id="svg_86" opacity="0.1" transform="translate(-95.23 -30.18)"/>
  <path d="m603.64,548.75l-0.56,0.6s-26.25,-15.25 -24.25,-19.5c1,-2.18 1.59,-6.72 1.9,-10.63l0,-0.61l22.91,30.14z" id="svg_87" opacity="0.1" transform="translate(-95.23 -30.18)"/>
  <path d="m580.75,518.91l-10.92,3.44s10.75,32.5 13.75,34.25l19.5,-7.25l-22.33,-30.44z" fill="#eaeaf2" id="svg_88" transform="translate(-95.23 -30.18)"/>
  <path d="m554.74,572s6.58,1.17 6.46,8s2.71,-8.83 2.71,-8.83l-9.17,0.83z" id="svg_89" opacity="0.1" transform="translate(-95.23 -30.18)"/>
  <path d="m556.24,593s-1.83,10.33 0,19.67s1.67,12.5 3.09,13s-3.09,-32.67 -3.09,-32.67z" id="svg_90" opacity="0.1" transform="translate(-95.23 -30.18)"/>
  <path d="m640.24,592a3.62,3.62 0 0 0 -3,4.67c0.84,4.18 3,-4.67 3,-4.67z" id="svg_91" opacity="0.1" transform="translate(-95.23 -30.18)"/>
  <path d="m525.91,627s21.43,-1.83 25,2s-25,-2 -25,-2z" id="svg_92" opacity="0.1" transform="translate(-95.23 -30.18)"/>
  <path d="m650.24,628.45s15.67,-1.93 19.34,0.74" id="svg_93" opacity="0.1" transform="translate(-95.23 -30.18)"/>
  <path d="m656.58,631s9.33,0.33 11.5,1.5" id="svg_94" opacity="0.1" transform="translate(-95.23 -30.18)"/>
  <path d="m658.41,634.35s8.5,-0.33 9.67,1" id="svg_95" opacity="0.1" transform="translate(-95.23 -30.18)"/>
  <path d="m538.54,681.35s7.28,3.79 6.54,7.66s-6.54,-7.66 -6.54,-7.66z" id="svg_96" opacity="0.1" transform="translate(-95.23 -30.18)"/>
  <path d="m532.24,683.19s11.11,14.41 9.6,19.16s-9.6,-19.16 -9.6,-19.16z" id="svg_97" opacity="0.1" transform="translate(-95.23 -30.18)"/>
  <path d="m651.33,685.58s-5.5,4.53 -5.35,8.27" id="svg_98" opacity="0.1" transform="translate(-95.23 -30.18)"/>
  <path d="m524.33,774.85s0,4.25 7.87,10.5" id="svg_99" opacity="0.1" transform="translate(-95.23 -30.18)"/>
  <path d="m663.24,764.85s-0.84,8.84 -8.5,13.42" id="svg_100" opacity="0.1" transform="translate(-95.23 -30.18)"/>
  <g id="svg_101" opacity="0.1">
   <path d="m568.83,464.81c0,-0.69 -0.12,-1.4 -0.18,-2.1a20.17,20.17 0 0 0 0.14,4.58a18.64,18.64 0 0 0 0.04,-2.48z" id="svg_102" transform="translate(-95.23 -30.18)"/>
   <path d="m567.24,492.75c0.15,-2.9 -2.37,-5.23 -3.1,-8a2.7,2.7 0 0 1 -0.08,-0.41a7.71,7.71 0 0 0 0.08,3.41c0.59,2.29 2.37,4.25 2.93,6.47c0.05,-0.52 0.15,-0.99 0.17,-1.47z" id="svg_103" transform="translate(-95.23 -30.18)"/>
   <path d="m637.18,480.26a13.33,13.33 0 0 1 -3.57,4.39c-2.33,2.15 -5.22,4.46 -8.31,3.76c-4.59,-1 -6.17,-8 -10.85,-8.48s-7.79,6 -12.52,5.87c-2,-0.05 -3.8,-1.36 -5.64,-2.27c-3.22,-1.59 -8.51,-2.56 -12,-1.36c-5.23,1.79 -7,6.63 -10.36,10.48a16.87,16.87 0 0 1 -4.4,3.58a2.12,2.12 0 0 1 -1.13,0.35a1.39,1.39 0 0 1 -1.12,-0.9l0,0.07a15.39,15.39 0 0 0 -0.19,2.24a1.65,1.65 0 0 0 1.31,1.59a2.12,2.12 0 0 0 1.13,-0.35a16.87,16.87 0 0 0 4.4,-3.58c3.38,-3.85 5.13,-8.69 10.36,-10.48c3.53,-1.2 8.82,-0.23 12,1.36c1.84,0.91 3.6,2.22 5.64,2.27c4.73,0.12 7.82,-6.39 12.52,-5.87s6.26,7.44 10.85,8.48c3.09,0.7 6,-1.61 8.31,-3.76a13.33,13.33 0 0 0 3.57,-4.39a8.44,8.44 0 0 0 0.43,-4.54a7.07,7.07 0 0 1 -0.43,1.54z" id="svg_104" transform="translate(-95.23 -30.18)"/>
  </g>
  <path d="m500,814.48s8.17,-2.52 11.56,2.26" id="svg_105" opacity="0.1" transform="translate(-95.23 -30.18)"/>
  <path d="m689.27,815.48s-13.53,-0.79 -13,2.87" id="svg_106" opacity="0.1" transform="translate(-95.23 -30.18)"/>
  <ellipse cx="864.17" cy="773.34" fill="#38d39f" id="svg_107" opacity="0.1" rx="26.93" ry="4.55"/>
  <ellipse cx="91.09" cy="810.68" fill="#38d39f" id="svg_108" opacity="0.1" rx="26.93" ry="4.55"/>
  <ellipse cx="195.26" cy="835.09" fill="#38d39f" id="svg_109" opacity="0.1" rx="26.93" ry="4.55"/>
  <ellipse cx="805.22" cy="822.1" fill="#7ea88a" id="svg_110" rx="40.21" ry="6.8"/>
  <path d="m821.85,810.98a11.71,11.71 0 0 0 3.83,-5.79c0.5,-2.29 -0.48,-5 -2.68,-5.89c-2.46,-0.94 -5.09,0.77 -7.08,2.49s-4.28,3.69 -6.89,3.32a10.48,10.48 0 0 0 3.25,-9.81a4.13,4.13 0 0 0 -0.91,-2c-1.36,-1.46 -3.84,-0.84 -5.47,0.32c-5.2,3.65 -6.65,10.72 -6.68,17.07c-0.53,-2.29 -0.08,-4.68 -0.1,-7s-0.65,-5 -2.64,-6.23a7.94,7.94 0 0 0 -4,-0.94c-2.34,-0.09 -4.94,0.15 -6.54,1.86c-2,2.12 -1.46,5.68 0.26,8s4.35,3.81 6.77,5.42a15,15 0 0 1 4.83,4.61a4.16,4.16 0 0 1 0.36,0.83l14.61,0a41.06,41.06 0 0 0 9.08,-6.26z" fill="#7ea88a" id="svg_111"/>
  <path d="m196.65,723.27s5.5,7.19 -2.53,18s-14.65,20 -12,26.77c0,0 12.12,-20.15 22,-20.43s3.38,-12.22 -7.47,-24.34z" fill="#7ea88a" id="svg_112"/>
  <path d="m291.88,753.45a8.83,8.83 0 0 1 1.12,2.26c9.62,11.3 14.75,21.85 5.5,22.11c-8.61,0.25 -18.94,15.65 -21.42,19.54c0.08,0.3 0.18,0.59 0.29,0.89c0,0 12.12,-20.15 22,-20.43s3.36,-12.25 -7.49,-24.37z" id="svg_113" opacity="0.1" transform="translate(-95.23 -30.18)"/>
  <path d="m302.09,762.61c0,2.53 -0.28,4.58 -0.63,4.58s-0.63,-2.05 -0.63,-4.58s0.35,-1.34 0.7,-1.34s0.56,-1.19 0.56,1.34z" fill="#ffd037" id="svg_114" transform="translate(-95.23 -30.18)"/>
  <path d="m305.6,765.63c-2.22,1.21 -4.16,1.94 -4.32,1.63s1.49,-1.54 3.71,-2.75s1.35,-0.33 1.51,0s1.32,-0.09 -0.9,1.12z" fill="#ffd037" id="svg_115" transform="translate(-95.23 -30.18)"/>
  <path d="m167.64,723.27s-5.5,7.19 2.53,18s14.65,20 12,26.77c0,0 -12.11,-20.15 -22,-20.43s-3.4,-12.22 7.47,-24.34z" fill="#7ea88a" id="svg_116"/>
  <path d="m262.87,753.45a9,9 0 0 0 -1.13,2.26c-9.62,11.3 -14.74,21.85 -5.5,22.11c8.62,0.25 18.95,15.65 21.43,19.54a7.76,7.76 0 0 1 -0.3,0.89s-12.11,-20.15 -22,-20.43s-3.37,-12.25 7.5,-24.37z" id="svg_117" opacity="0.1" transform="translate(-95.23 -30.18)"/>
  <path d="m252.65,762.61c0,2.53 0.29,4.58 0.64,4.58s0.63,-2.05 0.63,-4.58s-0.35,-1.34 -0.7,-1.34s-0.57,-1.19 -0.57,1.34z" fill="#ffd037" id="svg_118" transform="translate(-95.23 -30.18)"/>
  <path d="m249.15,765.63c2.22,1.21 4.15,1.94 4.32,1.63s-1.5,-1.54 -3.72,-2.75s-1.34,-0.33 -1.51,0s-1.31,-0.09 0.91,1.12z" fill="#ffd037" id="svg_119" transform="translate(-95.23 -30.18)"/>
  <path d="m254.4,797.31s15.36,-0.48 20,-3.77s23.63,-7.24 24.77,-1.95s23.09,26.29 5.75,26.43s-40.3,-2.7 -44.92,-5.51s-5.6,-15.2 -5.6,-15.2z" fill="#a8a8a8" id="svg_120" transform="translate(-95.23 -30.18)"/>
  <path d="m305.22,816.18c-17.34,0.14 -40.3,-2.7 -44.92,-5.51c-3.51,-2.15 -4.92,-9.84 -5.39,-13.38l-0.51,0s1,12.38 5.59,15.2s27.58,5.65 44.92,5.51c5,0 6.73,-1.82 6.64,-4.46c-0.7,1.62 -2.61,2.61 -6.33,2.64z" id="svg_121" opacity="0.2" transform="translate(-95.23 -30.18)"/>
 </g>
</svg>