<svg xmlns="http://www.w3.org/2000/svg" xmlns:xlink="http://www.w3.org/1999/xlink" width="500" zoomAndPan="magnify" viewBox="0 0 375 374.999991" height="500" preserveAspectRatio="xMidYMid meet" version="1.0">
	<defs>
		<clipPath id="b70397c705">
			<path d="M 0 233 L 375 233 L 375 330.773438 L 0 330.773438 Z M 0 233 " clip-rule="nonzero"/>
		</clipPath>
		<clipPath id="6cb1fd4847">
			<path d="M 93 158.273438 L 185 158.273438 L 185 297 L 93 297 Z M 93 158.273438 " clip-rule="nonzero"/>
		</clipPath>
		<clipPath id="2a541b5725">
			<path d="M 182 117 L 265 117 L 265 249 L 182 249 Z M 182 117 " clip-rule="nonzero"/>
		</clipPath>
		<clipPath id="7ba763cdee">
			<path d="M 89.789062 46.40625 L 244.496094 16.882812 L 285.125 229.792969 L 130.417969 259.3125 Z M 89.789062 46.40625 " clip-rule="nonzero"/>
		</clipPath>
		<clipPath id="3246ee0dbc">
			<path d="M 89.789062 46.40625 L 244.496094 16.882812 L 285.125 229.792969 L 130.417969 259.3125 Z M 89.789062 46.40625 " clip-rule="nonzero"/>
		</clipPath>
		<clipPath id="90057d763c">
			<path d="M 249.230469 168.90625 C 242.167969 177.597656 232.75 184.039062 223.332031 190.09375 C 213.917969 196.152344 204.222656 202.019531 196.277344 209.925781 C 196.21875 209.992188 196.15625 210.039062 196.09375 210.105469 C 186.632812 219.585938 181.964844 232.832031 183.167969 246.164062 C 183.25 247.070312 183.347656 247.96875 183.449219 248.882812 C 183.976562 237.695312 190.160156 227.394531 198.105469 219.488281 C 206.050781 211.585938 215.722656 205.71875 225.160156 199.660156 C 234.578125 193.601562 243.996094 187.179688 251.054688 178.472656 C 264.597656 161.808594 267.757812 138.257812 262.40625 117.417969 C 264.722656 135.625 260.734375 154.742188 249.230469 168.90625 Z M 249.230469 168.90625 " clip-rule="nonzero"/>
		</clipPath>
		<clipPath id="c65c8d5253">
			<path d="M 160 57 L 254 57 L 254 232 L 160 232 Z M 160 57 " clip-rule="nonzero"/>
		</clipPath>
		<clipPath id="9c2ecfedc3">
			<path d="M 89.789062 46.40625 L 244.496094 16.882812 L 285.125 229.792969 L 130.417969 259.3125 Z M 89.789062 46.40625 " clip-rule="nonzero"/>
		</clipPath>
		<clipPath id="d15d377330">
			<path d="M 89.789062 46.40625 L 244.496094 16.882812 L 285.125 229.792969 L 130.417969 259.3125 Z M 89.789062 46.40625 " clip-rule="nonzero"/>
		</clipPath>
		<clipPath id="45b8212a8a">
			<path d="M 250.472656 107.890625 C 244.761719 88.074219 231.566406 71.0625 215.992188 57.546875 C 222.324219 68.511719 219.011719 82.890625 211.71875 93.257812 C 204.445312 103.625 193.84375 111.0625 184.140625 119.191406 C 174.441406 127.320312 165.074219 136.929688 161.808594 149.152344 C 159.304688 158.535156 160.695312 168.621094 163.984375 177.757812 C 166.144531 183.789062 169.085938 189.488281 172.296875 195.0625 C 173.855469 187.367188 176.507812 179.902344 180.195312 172.957031 C 187.757812 158.722656 198.332031 146.222656 209.375 134.457031 C 230.488281 111.964844 230.722656 104.335938 228.730469 91.003906 C 233.257812 101.265625 230.007812 113.488281 223.996094 122.949219 C 217.980469 132.414062 209.503906 140.03125 202.363281 148.683594 C 183.457031 171.601562 174.363281 202.339844 177.757812 231.851562 C 178.253906 221.476562 183.972656 211.90625 191.351562 204.585938 C 198.726562 197.25 207.710938 191.808594 216.441406 186.195312 C 225.191406 180.582031 233.925781 174.617188 240.464844 166.542969 C 253.492188 150.546875 256.164062 127.714844 250.472656 107.890625 Z M 250.472656 107.890625 " clip-rule="nonzero"/>
		</clipPath>
		<clipPath id="f2ebc58f1c">
			<path d="M 104 38 L 190 38 L 190 168 L 104 168 Z M 104 38 " clip-rule="nonzero"/>
		</clipPath>
		<clipPath id="f376e23ebc">
			<path d="M 89.789062 46.40625 L 244.496094 16.882812 L 285.125 229.792969 L 130.417969 259.3125 Z M 89.789062 46.40625 " clip-rule="nonzero"/>
		</clipPath>
		<clipPath id="14da1c33b9">
			<path d="M 89.789062 46.40625 L 244.496094 16.882812 L 285.125 229.792969 L 130.417969 259.3125 Z M 89.789062 46.40625 " clip-rule="nonzero"/>
		</clipPath>
	</defs>
	<path fill="#b4b4b8" d="M 249.585938 229.496094 C 249.273438 229.703125 248.542969 230.199219 247.5625 230.859375 C 247.566406 230.859375 247.574219 230.855469 247.578125 230.851562 C 248.679688 230.105469 249.3125 229.679688 249.585938 229.496094 Z M 249.585938 229.496094 " fill-opacity="1" fill-rule="nonzero"/>
	<path fill="#b4b4b8" d="M 278.988281 205.628906 L 288.863281 166.445312 C 287.296875 169.128906 285.558594 171.65625 283.804688 174.132812 C 277.25 183.394531 270.03125 191.847656 262.488281 199.691406 C 256.910156 205.496094 251.121094 210.960938 245.179688 216.097656 C 238.460938 221.90625 231.390625 226.976562 224.792969 233.042969 C 207.769531 248.707031 192.84375 270.363281 186.984375 296.925781 C 194.738281 281.207031 211.957031 254.917969 247.558594 230.859375 C 243.601562 233.535156 235.578125 238.957031 234.371094 239.773438 C 235.125 239.261719 238.800781 236.777344 247.574219 230.851562 C 260.25 222.289062 270.695312 213.515625 278.988281 205.628906 Z M 234.335938 239.800781 C 234.183594 239.898438 234.167969 239.910156 234.335938 239.800781 Z M 234.335938 239.800781 " fill-opacity="1" fill-rule="nonzero"/>
	<path fill="#b4b4b8" d="M 249.6875 229.425781 C 249.769531 229.371094 249.769531 229.371094 249.6875 229.425781 Z M 249.6875 229.425781 " fill-opacity="1" fill-rule="nonzero"/>
	<path fill="#b4b4b8" d="M 249.585938 229.496094 C 249.628906 229.464844 249.664062 229.441406 249.6875 229.425781 C 249.664062 229.441406 249.628906 229.464844 249.585938 229.496094 Z M 249.585938 229.496094 " fill-opacity="1" fill-rule="nonzero"/>
	<path fill="#b4b4b8" d="M 265.945312 234.992188 C 264.992188 235.503906 263.550781 236.277344 262.46875 236.851562 C 262.472656 236.851562 262.472656 236.851562 262.472656 236.847656 C 264.132812 235.964844 265.246094 235.367188 265.945312 234.992188 Z M 265.945312 234.992188 " fill-opacity="1" fill-rule="nonzero"/>
	<path fill="#b4b4b8" d="M 262.476562 236.851562 C 260.160156 238.09375 260.953125 237.667969 262.472656 236.855469 C 236.585938 250.710938 211.550781 270.230469 191.984375 296.929688 C 191.503906 297.585938 191.023438 298.246094 190.550781 298.914062 C 202.09375 275.964844 219.25 258.132812 237.042969 244.191406 C 244 238.738281 251.28125 234.109375 258.328125 228.882812 C 264.597656 224.234375 270.722656 219.242188 276.664062 213.882812 C 286.535156 204.980469 296.128906 195.117188 304.429688 183.71875 C 305.054688 182.855469 305.675781 181.988281 306.269531 181.085938 L 295.589844 216.050781 C 286.445312 222.695312 275.300781 229.988281 262.476562 236.851562 Z M 262.476562 236.851562 " fill-opacity="1" fill-rule="nonzero"/>
	<path fill="#b4b4b8" d="M 266.878906 234.496094 C 266.949219 234.460938 266.953125 234.457031 266.878906 234.496094 Z M 266.878906 234.496094 " fill-opacity="1" fill-rule="nonzero"/>
	<path fill="#b4b4b8" d="M 265.945312 234.992188 C 265.984375 234.96875 266.027344 234.949219 266.070312 234.925781 C 266.027344 234.949219 265.992188 234.96875 265.945312 234.992188 Z M 265.945312 234.992188 " fill-opacity="1" fill-rule="nonzero"/>
	<path fill="#b4b4b8" d="M 266.070312 234.925781 C 266.515625 234.6875 266.777344 234.550781 266.878906 234.496094 C 266.761719 234.558594 266.472656 234.710938 266.070312 234.925781 Z M 266.070312 234.925781 " fill-opacity="1" fill-rule="nonzero"/>
	<path fill="#b4b4b8" d="M 275.863281 249.355469 C 275.730469 249.390625 275.625 249.417969 275.535156 249.4375 C 275.625 249.414062 275.734375 249.390625 275.863281 249.355469 C 253.359375 254.824219 231.410156 265.335938 211.542969 280.640625 C 223.699219 268.136719 237.03125 257.671875 250.925781 248.972656 C 258.289062 244.359375 265.894531 240.53125 273.339844 236.167969 C 280.175781 232.160156 286.90625 227.832031 293.515625 223.199219 C 304.714844 215.339844 315.964844 206.746094 326 196.410156 L 314.515625 234.003906 C 304.472656 239.707031 291.472656 245.566406 275.863281 249.355469 Z M 275.863281 249.355469 " fill-opacity="1" fill-rule="nonzero"/>
	<path fill="#b4b4b8" d="M 281.921875 247.886719 C 281.953125 247.878906 281.957031 247.878906 281.921875 247.886719 Z M 281.921875 247.886719 " fill-opacity="1" fill-rule="nonzero"/>
	<path fill="#b4b4b8" d="M 275.910156 249.347656 C 275.9375 249.339844 275.96875 249.332031 275.992188 249.324219 C 275.964844 249.332031 275.941406 249.335938 275.910156 249.347656 Z M 275.910156 249.347656 " fill-opacity="1" fill-rule="nonzero"/>
	<path fill="#b4b4b8" d="M 278.957031 248.605469 C 279.101562 248.570312 279.246094 248.535156 279.386719 248.5 C 279.253906 248.53125 279.097656 248.570312 278.957031 248.605469 Z M 278.957031 248.605469 " fill-opacity="1" fill-rule="nonzero"/>
	<path fill="#b4b4b8" d="M 279.386719 248.5 C 279.726562 248.414062 280.019531 248.34375 280.285156 248.28125 C 280.003906 248.351562 279.699219 248.421875 279.386719 248.5 Z M 279.386719 248.5 " fill-opacity="1" fill-rule="nonzero"/>
	<path fill="#b4b4b8" d="M 275.910156 249.347656 C 275.894531 249.351562 275.878906 249.355469 275.863281 249.355469 C 275.878906 249.355469 275.894531 249.351562 275.910156 249.347656 Z M 275.910156 249.347656 " fill-opacity="1" fill-rule="nonzero"/>
	<path fill="#b4b4b8" d="M 280.28125 248.28125 C 281.125 248.078125 281.78125 247.921875 281.921875 247.886719 C 281.820312 247.910156 281.332031 248.027344 280.28125 248.28125 Z M 280.28125 248.28125 " fill-opacity="1" fill-rule="nonzero"/>
	<path fill="#b4b4b8" d="M 275.992188 249.324219 C 276.15625 249.285156 276.296875 249.25 276.453125 249.214844 C 276.285156 249.25 276.128906 249.289062 275.992188 249.324219 Z M 275.992188 249.324219 " fill-opacity="1" fill-rule="nonzero"/>
	<path fill="#b4b4b8" d="M 276.453125 249.214844 C 276.558594 249.1875 276.664062 249.160156 276.78125 249.132812 C 276.675781 249.160156 276.5625 249.183594 276.453125 249.214844 Z M 276.453125 249.214844 " fill-opacity="1" fill-rule="nonzero"/>
	<path fill="#b4b4b8" d="M 276.78125 249.132812 C 277.625 248.929688 278.347656 248.753906 278.957031 248.601562 C 278.203125 248.789062 277.425781 248.976562 276.78125 249.132812 Z M 276.78125 249.132812 " fill-opacity="1" fill-rule="nonzero"/>
	<path fill="#b4b4b8" d="M 295.3125 263.761719 C 295.394531 263.738281 295.398438 263.734375 295.3125 263.761719 Z M 295.3125 263.761719 " fill-opacity="1" fill-rule="nonzero"/>
	<path fill="#b4b4b8" d="M 286.199219 265.964844 C 272.066406 269.488281 257.972656 273.316406 243.988281 277.847656 C 230.023438 282.367188 216.050781 287.355469 202.554688 294.070312 C 215.0625 282.816406 228.644531 273.652344 242.769531 266.632812 C 250.066406 263.015625 257.507812 259.964844 265.058594 257.515625 C 272.867188 254.984375 280.804688 253.390625 288.601562 250.796875 C 300.464844 246.851562 312.097656 241.402344 323.128906 234.289062 C 329.167969 230.402344 335.292969 226.105469 340.675781 220.71875 L 331.234375 251.621094 C 321.46875 255.789062 306.894531 260.957031 286.199219 265.964844 Z M 286.199219 265.964844 " fill-opacity="1" fill-rule="nonzero"/>
	<path fill="#b4b4b8" d="M 286.265625 265.945312 C 292.449219 264.449219 294.898438 263.859375 295.3125 263.761719 C 294.515625 263.949219 287.035156 265.757812 286.265625 265.945312 Z M 286.265625 265.945312 " fill-opacity="1" fill-rule="nonzero"/>
	<path fill="#b4b4b8" d="M 286.199219 265.964844 C 286.199219 265.964844 286.226562 265.957031 286.265625 265.945312 C 286.242188 265.953125 286.226562 265.957031 286.199219 265.964844 Z M 286.199219 265.964844 " fill-opacity="1" fill-rule="nonzero"/>
	<g clip-path="url(#b70397c705)">
		<path fill="#4b49ac" d="M 297.308594 293.09375 L 288.402344 296.558594 L 200.277344 330.84375 L 184.527344 330.183594 L 184.167969 330.167969 L 168.421875 329.507812 L 83.464844 287.96875 L 74.882812 283.769531 L 11.28125 252.675781 L 0.0078125 247.164062 L 8.078125 243.074219 L 26.453125 233.769531 C 28.71875 235.785156 31.234375 237.382812 33.699219 238.933594 C 39.402344 242.527344 45.304688 245.578125 51.265625 248.394531 C 64.121094 254.460938 77.296875 259.160156 90.535156 263.648438 C 106.046875 268.90625 121.453125 274.742188 136.613281 281.472656 C 144.089844 284.789062 151.503906 288.316406 158.800781 292.246094 C 165.644531 295.929688 172.480469 299.890625 178.796875 304.949219 C 181.039062 306.738281 183.242188 308.683594 185.148438 311.050781 C 190.960938 304.949219 198.464844 301.351562 205.351562 298.011719 C 212.769531 294.410156 220.339844 291.328125 227.941406 288.519531 C 243.382812 282.8125 259.007812 278.078125 274.707031 273.949219 C 289.210938 270.128906 303.75 266.816406 318.085938 261.867188 C 328.46875 258.277344 339.195312 254.417969 348.832031 247.964844 C 349.140625 247.757812 349.449219 247.542969 349.753906 247.320312 L 367.28125 258.128906 L 374.984375 262.878906 L 363.292969 267.429688 Z M 297.308594 293.09375 " fill-opacity="1" fill-rule="nonzero"/>
	</g>
	<g clip-path="url(#6cb1fd4847)">
		<path fill="#b4b4b8" d="M 184.5 296.824219 C 183.398438 288.621094 181.382812 280.667969 178.683594 273.179688 C 173.8125 259.652344 166.726562 247.699219 158.53125 237.417969 C 153.050781 230.550781 147.035156 224.683594 140.894531 218.894531 C 134.789062 213.128906 128.878906 207.011719 123.214844 200.519531 C 115.1875 191.320312 107.613281 181.382812 100.847656 170.5625 C 98.386719 166.628906 95.949219 162.59375 93.890625 158.273438 L 100.453125 198.148438 C 108.058594 206.699219 117.726562 216.316406 129.644531 225.910156 C 137.574219 232.296875 141.078125 235.117188 141.964844 235.828125 C 140.5625 234.703125 133.285156 228.835938 129.652344 225.917969 C 163.128906 252.871094 178.082031 280.511719 184.5 296.824219 Z M 142.097656 235.933594 C 142.246094 236.058594 142.234375 236.046875 142.097656 235.933594 Z M 142.097656 235.933594 " fill-opacity="1" fill-rule="nonzero"/>
	</g>
	<path fill="#b4b4b8" d="M 129.648438 225.910156 C 129.648438 225.914062 129.652344 225.914062 129.65625 225.917969 C 127.339844 224.058594 126.515625 223.390625 129.648438 225.910156 Z M 129.648438 225.910156 " fill-opacity="1" fill-rule="nonzero"/>
	<path fill="#b4b4b8" d="M 99.367188 203.625 C 99.390625 203.652344 99.40625 203.667969 99.429688 203.691406 C 99.417969 203.679688 99.40625 203.667969 99.398438 203.65625 C 99.386719 203.644531 99.378906 203.632812 99.367188 203.625 Z M 99.367188 203.625 " fill-opacity="1" fill-rule="nonzero"/>
	<path fill="#b4b4b8" d="M 99.398438 203.65625 C 99.753906 204.042969 99.609375 203.886719 99.429688 203.691406 C 104.777344 209.570312 110.335938 215.121094 116.074219 220.335938 C 122.597656 226.273438 129.476562 231.496094 136.042969 237.359375 C 146.679688 246.863281 156.679688 257.703125 165.339844 270.214844 C 171.285156 278.800781 176.644531 288.203125 180.785156 298.507812 C 164.257812 270.558594 141.679688 249.089844 117.824219 232.976562 C 105.933594 224.945312 94.214844 216.796875 83.042969 207.144531 L 75.324219 171.410156 C 77.089844 174.652344 79.097656 177.683594 81.121094 180.648438 C 86.753906 188.898438 92.921875 196.503906 99.375 203.628906 C 99.171875 203.410156 98.992188 203.207031 99.398438 203.65625 Z M 99.398438 203.65625 " fill-opacity="1" fill-rule="nonzero"/>
	<path fill="#b4b4b8" d="M 101.078125 227.304688 C 108.097656 232.363281 115.367188 236.800781 122.371094 241.898438 C 135.558594 251.496094 148.105469 262.804688 159.304688 276.035156 C 160.003906 276.863281 160.699219 277.695312 161.386719 278.535156 C 148.957031 267.183594 135.398438 257.90625 121.207031 250.824219 C 106.792969 243.621094 91.542969 239.84375 77.234375 232.257812 C 72.277344 229.625 67.414062 226.691406 62.679688 223.445312 L 54.378906 185.027344 C 62.851562 195.359375 72.515625 204.238281 82.199219 212.492188 C 88.347656 217.738281 94.648438 222.675781 101.078125 227.304688 Z M 101.078125 227.304688 " fill-opacity="1" fill-rule="nonzero"/>
	<path fill="#b4b4b8" d="M 61.792969 228.585938 C 63.597656 229.800781 62.265625 228.902344 61.804688 228.59375 C 68.09375 232.824219 74.59375 236.523438 81.25 239.707031 C 88.582031 243.21875 96.097656 245.726562 103.609375 248.503906 C 118.433594 253.980469 132.714844 261.824219 146.019531 271.851562 C 154.15625 277.984375 161.941406 284.925781 169.222656 292.671875 C 154.882812 283.96875 139.78125 277.289062 124.679688 271.128906 C 109.402344 264.902344 93.898438 259.859375 78.476562 254.285156 C 66.988281 250.128906 55.582031 245.449219 44.539062 239.609375 L 37.71875 208.023438 C 44.769531 216.382812 53.355469 222.894531 61.777344 228.570312 C 61.644531 228.484375 61.605469 228.460938 61.792969 228.585938 Z M 61.792969 228.585938 " fill-opacity="1" fill-rule="nonzero"/>
	<path fill="#b4b4b8" d="M 61.773438 228.574219 C 61.78125 228.582031 61.792969 228.585938 61.804688 228.589844 C 61.800781 228.589844 61.796875 228.585938 61.792969 228.585938 C 61.785156 228.585938 61.78125 228.578125 61.773438 228.574219 Z M 61.773438 228.574219 " fill-opacity="1" fill-rule="nonzero"/>
	<g clip-path="url(#2a541b5725)">
		<g clip-path="url(#7ba763cdee)">
			<g clip-path="url(#3246ee0dbc)">
				<g clip-path="url(#90057d763c)">
					<path fill="#4b49ac" d="M 264.746094 101.621094 L 291.964844 244.265625 L 184.976562 264.679688 L 157.757812 122.039062 Z M 264.746094 101.621094 " fill-opacity="1" fill-rule="nonzero"/>
				</g>
			</g>
		</g>
	</g>
	<g clip-path="url(#c65c8d5253)">
		<g clip-path="url(#9c2ecfedc3)">
			<g clip-path="url(#d15d377330)">
				<g clip-path="url(#45b8212a8a)">
					<path fill="#4b49ac" d="M 252.761719 39.714844 L 288.257812 225.726562 L 162.707031 249.6875 L 127.210938 63.671875 Z M 252.761719 39.714844 " fill-opacity="1" fill-rule="nonzero"/>
				</g>
			</g>
		</g>
	</g>
	<g clip-path="url(#f2ebc58f1c)">
		<g clip-path="url(#f376e23ebc)">
			<g clip-path="url(#14da1c33b9)">
				<path fill="#b4b4b8" d="M 155.488281 145.164062 C 156.984375 139.539062 159.777344 134.46875 163.304688 129.851562 C 162 128.613281 160.6875 127.394531 159.320312 126.203125 C 150.851562 118.84375 141.242188 112.75 133.738281 104.394531 C 126.25 96.042969 121.007812 84.539062 123.800781 73.671875 C 124.800781 89.597656 128.792969 95.5 150.070312 113.320312 C 155.339844 117.75 160.722656 122.101562 165.917969 126.632812 C 169.515625 122.480469 173.640625 118.699219 177.835938 115.199219 C 181.523438 112.109375 185.339844 109.125 189.046875 106.03125 C 184.105469 101.410156 178.285156 97.546875 172.433594 94.113281 C 161.519531 87.695312 149.839844 82.105469 140.960938 73.078125 C 132.0625 64.058594 126.414062 50.429688 130.851562 38.570312 C 117.710938 54.460938 107.503906 73.40625 105.15625 93.898438 C 102.804688 114.394531 109.203125 136.464844 124.671875 150.109375 C 132.464844 156.972656 142.066406 161.417969 151.625 165.523438 C 152.984375 166.109375 154.34375 166.695312 155.703125 167.261719 C 153.945312 159.980469 153.578125 152.375 155.488281 145.164062 Z M 155.488281 145.164062 " fill-opacity="1" fill-rule="nonzero"/>
			</g>
		</g>
	</g>
</svg>
